<?xml version="1.0" standalone="no"?>
<!DOCTYPE svg PUBLIC "-//W3C//DTD SVG 20010904//EN"
 "http://www.w3.org/TR/2001/REC-SVG-20010904/DTD/svg10.dtd">
<svg version="1.0" xmlns="http://www.w3.org/2000/svg"
 width="360.000000pt" height="209.000000pt" viewBox="0 0 360.000000 209.000000"
 preserveAspectRatio="xMidYMid meet">

<g transform="translate(0.000000,209.000000) scale(0.100000,-0.100000)"
fill="#000000" stroke="none">
<path d="M0 1045 l0 -1045 1800 0 1800 0 0 326 c0 205 -4 332 -10 345 -7 13
-7 19 0 19 5 0 10 13 10 29 0 23 -5 31 -22 34 l-23 4 23 2 22 1 0 350 0 350
-195 0 c-123 0 -195 4 -195 10 0 6 -37 10 -90 10 -53 0 -90 -4 -90 -10 0 -5
-15 -10 -32 -9 -18 0 -27 3 -20 6 20 8 14 33 -8 33 -11 0 -20 -3 -20 -7 0 -5
-14 -9 -30 -10 -24 -2 -30 2 -30 17 0 17 7 20 40 20 22 0 40 5 40 10 0 6 36
10 89 10 56 0 91 4 93 11 3 8 74 11 228 12 202 1 211 1 90 7 l-135 6 133 2
132 2 0 255 0 255 -235 0 c-200 0 -235 -2 -235 -15 0 -13 -28 -35 -45 -35 -3
0 -3 11 1 25 6 23 3 25 -24 25 -27 0 -31 -4 -34 -32 -2 -17 -9 -34 -17 -36
-11 -4 -12 3 -7 32 l7 36 -1506 0 -1505 0 0 -1045z m2683 858 c-7 -2 -19 -2
-25 0 -7 3 -2 5 12 5 14 0 19 -2 13 -5z m-1307 -39 c-5 -13 -10 -14 -18 -6 -6
6 -8 18 -4 28 5 13 10 14 18 6 6 -6 8 -18 4 -28z m-1003 -24 c-3 -11 -14 -20
-24 -20 -24 0 -24 5 -1 28 21 23 32 19 25 -8z m-98 -100 c3 -5 2 -10 -4 -10
-5 0 -13 5 -16 10 -3 6 -2 10 4 10 5 0 13 -4 16 -10z m752 -66 c-3 -3 -12 -4
-19 -1 -8 3 -5 6 6 6 11 1 17 -2 13 -5z m155 -16 c9 -1 15 -5 13 -8 -2 -3 5
-12 17 -19 16 -10 19 -10 12 1 -5 7 6 2 23 -12 18 -14 32 -29 32 -34 1 -5 -9
-1 -21 10 -14 12 -12 7 5 -12 16 -18 35 -51 42 -75 8 -24 14 -36 14 -26 1 14
9 17 49 15 l47 -1 -43 -4 c-42 -4 -44 -6 -38 -31 3 -15 3 -21 0 -14 -3 6 -10
12 -15 12 -12 0 -12 -67 1 -75 15 -9 13 -132 -2 -141 -7 -4 -32 -11 -55 -14
l-43 -7 -6 39 c-4 21 -10 38 -15 38 -16 0 -10 44 10 76 l19 31 -91 2 c-123 3
-125 11 -3 11 l98 0 -4 29 c-2 17 -1 28 4 25 4 -3 8 -18 8 -35 0 -19 5 -29 15
-29 8 0 15 7 15 16 0 9 -5 12 -12 8 -6 -4 -8 -3 -5 3 8 13 -11 80 -25 89 -7 5
-9 2 -5 -9 9 -23 -13 -28 -150 -34 -122 -6 -122 -6 -126 -32 -3 -21 -4 -19 -6
9 l-1 35 86 -4 c62 -2 85 0 80 8 -4 6 1 19 10 29 17 16 17 16 12 -5 -6 -21 -3
-23 37 -23 37 0 43 3 47 25 4 17 -1 30 -16 42 -21 18 -21 18 -6 -2 14 -20 14
-20 -5 0 -12 12 -27 19 -34 17 -8 -3 -11 0 -7 6 4 7 -6 9 -31 7 -31 -4 -34 -3
-13 4 l25 9 -28 1 c-32 1 -93 -22 -121 -47 -20 -18 -66 -113 -66 -136 0 -12
11 -15 51 -17 13 0 16 -14 15 -87 -1 -83 -2 -86 -26 -93 -21 -6 -24 -11 -4 -8
4 0 11 -5 16 -13 7 -10 11 -10 15 0 2 6 17 12 33 12 31 0 61 -35 51 -60 -9
-22 -65 -24 -95 -5 -14 10 -26 14 -26 10 0 -5 -8 2 -19 13 -10 12 -21 18 -25
14 -4 -4 -7 -2 -6 3 5 23 -1 36 -12 29 -7 -4 -10 -4 -6 1 4 4 3 14 -4 22 -7 9
-9 47 -5 121 6 98 2 109 -17 50 -4 -14 -15 -18 -43 -16 l-38 1 38 4 c22 3 37
9 37 18 0 7 3 21 6 30 6 14 -9 16 -152 13 -88 -2 -168 -7 -178 -12 -13 -7 -17
-6 -13 1 4 6 2 13 -4 15 -12 4 114 11 211 12 59 1 76 11 57 35 -9 11 -9 13 0
8 7 -4 14 1 18 13 3 11 11 20 16 20 5 0 9 10 10 23 0 12 3 16 6 9 2 -6 10 -9
16 -5 7 4 0 -8 -15 -26 -16 -18 -28 -36 -28 -41 0 -5 -3 -15 -6 -24 -5 -13 1
-16 29 -16 32 0 37 4 47 35 6 19 16 38 22 41 6 4 6 -1 -1 -14 -6 -11 -11 -24
-11 -29 1 -4 8 4 16 20 8 15 13 31 10 36 -6 10 29 42 66 60 15 8 25 19 21 24
-3 6 -1 7 5 4 5 -4 21 -3 34 3 19 8 73 7 160 -2z m-227 -18 c3 -6 -1 -7 -9 -4
-18 7 -21 14 -7 14 6 0 13 -4 16 -10z m-45 -4 c0 -2 -7 -7 -16 -10 -8 -3 -12
-2 -9 4 6 10 25 14 25 6z m-490 -46 c0 -5 -9 -10 -20 -10 -11 0 -20 5 -20 10
0 6 9 10 20 10 11 0 20 -4 20 -10z m1165 -92 c15 -7 25 -19 24 -32 0 -20 -1
-20 -9 1 -10 25 -30 31 -110 36 l-55 3 62 2 c34 1 74 -3 88 -10z m235 -32 c0
-3 -4 -8 -10 -11 -5 -3 -10 -1 -10 4 0 6 5 11 10 11 6 0 10 -2 10 -4z m-1406
-22 c4 -10 13 -13 28 -9 18 4 17 2 -5 -10 -16 -9 -34 -14 -40 -11 -7 2 -3 5 7
5 18 1 18 2 1 21 -10 11 -13 20 -8 20 6 0 14 -7 17 -16z m1116 -46 c-1 -29 -2
-31 -13 -16 -7 9 -24 18 -37 21 -21 3 -19 5 10 7 23 2 12 6 -35 10 l-70 6 73
2 72 2 0 -32z m87 -35 c-2 -16 -4 -5 -4 22 0 28 2 40 4 28 2 -13 2 -35 0 -50z
m-974 29 c-6 -4 -13 -23 -16 -42 -4 -33 -4 -33 -5 8 -2 34 1 42 16 42 11 0 13
-3 5 -8z m-246 -64 c-2 -13 -4 -3 -4 22 0 25 2 35 4 23 2 -13 2 -33 0 -45z
m2650 20 c-3 -8 -6 -5 -6 6 -1 11 2 17 5 13 3 -3 4 -12 1 -19z m168 -6 c-3 -3
-11 0 -18 7 -9 10 -8 11 6 5 10 -3 15 -9 12 -12z m-1666 -181 c0 -30 -2 -51
-5 -48 -4 4 -8 59 -9 124 -2 100 -2 107 5 48 4 -38 8 -94 9 -124z m83 77 c2
-21 0 -38 -4 -38 -4 0 -7 24 -7 53 1 54 5 49 11 -15z m-1245 -40 c-2 -18 -4
-6 -4 27 0 33 2 48 4 33 2 -15 2 -42 0 -60z m-62 52 c-3 -5 -18 -9 -33 -9
l-27 1 30 8 c17 4 31 8 33 9 2 0 0 -3 -3 -9z m2722 -30 c135 -39 160 -48 167
-65 3 -8 -15 -86 -40 -175 -25 -89 -43 -165 -40 -168 3 -3 6 2 6 12 0 9 4 15
9 12 5 -3 7 -15 4 -26 -3 -11 0 -20 6 -20 6 0 11 -8 11 -17 0 -11 -3 -14 -8
-7 -4 6 -14 13 -24 17 -13 5 -21 -9 -40 -71 -23 -76 -24 -77 -60 -80 -56 -5
-105 20 -123 64 -8 20 -13 39 -11 41 4 4 108 -21 141 -33 10 -4 15 0 15 15 0
19 -6 21 -62 23 l-63 2 70 5 69 6 8 36 c4 20 25 98 47 174 29 98 37 141 29
146 -11 7 -185 55 -221 61 -15 2 -23 -9 -37 -54 -30 -96 -32 -111 -18 -102 7
5 3 -4 -9 -19 -27 -34 -39 -120 -23 -162 6 -16 21 -41 33 -55 20 -23 20 -23 1
-7 -11 9 -26 17 -32 17 -7 0 -13 10 -14 23 0 12 -5 0 -9 -28 -5 -31 -6 3 -4
90 4 118 9 156 34 243 31 107 44 132 67 132 7 0 62 -14 121 -30z m-2430 -302
c-1 -57 -3 -11 -3 102 0 113 2 159 3 103 2 -57 2 -149 0 -205z m1043 252 c0
-11 -4 -28 -9 -38 -5 -9 -12 -25 -15 -34 -4 -14 -15 -18 -43 -16 l-38 1 38 4
37 4 0 50 c0 37 4 49 15 49 8 0 15 -9 15 -20z m-1283 -112 c-2 -18 -4 -4 -4
32 0 36 2 50 4 33 2 -18 2 -48 0 -65z m640 66 c-3 -3 -12 -4 -19 -1 -8 3 -5 6
6 6 11 1 17 -2 13 -5z m-67 -68 c0 -3 -4 -8 -10 -11 -5 -3 -10 -1 -10 4 0 6 5
11 10 11 6 0 10 -2 10 -4z m873 -13 c-13 -2 -35 -2 -50 0 -16 2 -5 4 22 4 28
0 40 -2 28 -4z m263 -36 c1 -23 2 -48 3 -54 1 -7 14 -13 31 -13 27 0 30 3 30
33 0 66 8 77 54 75 l41 -1 -37 -4 -38 -4 0 -55 0 -54 -50 0 -50 0 0 54 0 55
-37 4 c-37 4 -37 4 7 5 l45 2 1 -43z m271 28 c-21 -7 -47 -21 -58 -31 -11 -10
-19 -12 -19 -6 0 7 4 12 9 12 5 0 11 8 13 18 4 12 17 18 49 19 l44 2 -38 -14z
m80 9 c-3 -3 -12 -4 -19 -1 -8 3 -5 6 6 6 11 1 17 -2 13 -5z m190 0 c-3 -3
-12 -4 -19 -1 -8 3 -5 6 6 6 11 1 17 -2 13 -5z m176 -1 c-7 -2 -21 -2 -30 0
-10 3 -4 5 12 5 17 0 24 -2 18 -5z m-1943 -57 l0 -54 49 0 50 -1 -3 55 -3 55
36 -3 36 -3 3 -142 3 -143 -36 0 -35 0 0 54 c0 30 -4 58 -10 61 -5 3 -10 2
-10 -4 0 -10 -34 -8 -62 4 -16 6 -18 0 -18 -55 l0 -61 -32 3 -33 3 -3 113 c-2
88 -6 112 -17 112 -19 0 -27 16 -20 40 5 16 15 20 56 20 l49 0 0 -54z m260
-91 l0 -145 -35 0 -35 0 0 145 0 145 35 0 35 0 0 -145z m266 109 c19 -20 31
-40 28 -46 -4 -6 -7 -23 -6 -37 0 -20 -7 -30 -28 -40 -29 -12 -29 -13 -12 -39
9 -15 20 -29 24 -32 4 -3 11 -18 17 -33 10 -26 10 -27 -27 -27 -35 0 -40 4
-68 53 -24 43 -35 53 -60 55 -29 3 -30 1 -26 -27 2 -17 1 -42 -2 -56 -5 -21
-12 -25 -42 -25 l-35 0 3 83 3 82 88 3 88 3 -3 27 c-3 27 -4 27 -90 30 -84 3
-88 4 -88 26 0 12 3 26 7 29 3 4 49 7 101 7 l95 0 33 -36z m266 24 c9 -1 16
-5 15 -8 -1 -3 7 -19 16 -37 24 -45 23 -139 -3 -180 -26 -43 -52 -55 -122 -55
-66 0 -102 18 -126 63 -14 28 -14 179 0 179 5 0 6 5 3 10 -4 6 -1 9 7 8 7 -2
12 3 10 10 -1 8 1 11 5 9 5 -2 17 -1 28 4 17 7 111 6 167 -3z m306 -8 c13 -11
22 -23 20 -27 -1 -5 -15 4 -30 20 -31 31 -24 36 10 7z m972 16 c0 -2 -7 -7
-16 -10 -8 -3 -12 -2 -9 4 6 10 25 14 25 6z m-932 -143 c-1 -86 -3 -119 -7
-88 -5 42 -10 51 -28 53 -13 2 -23 -1 -23 -7 0 -7 -21 -10 -52 -9 -39 1 -44 2
-18 5 84 9 103 30 115 126 4 32 9 57 11 57 2 0 3 -62 2 -137z m569 -65 c-1
-40 -3 -10 -3 67 0 77 1 110 3 73 2 -37 2 -100 0 -140z m520 170 c-3 -7 -5 -2
-5 12 0 14 2 19 5 13 2 -7 2 -19 0 -25z m-335 -81 c3 -48 1 -55 -10 -40 -7 10
-10 23 -7 31 2 7 1 11 -3 8 -5 -3 -16 8 -26 25 -19 32 -12 38 16 12 17 -15 18
-14 19 28 2 50 7 21 11 -64z m-2385 6 c-2 -16 -4 -3 -4 27 0 30 2 43 4 28 2
-16 2 -40 0 -55z m2048 57 c-4 -6 -11 -8 -16 -5 -5 4 -9 -3 -9 -14 0 -16 -6
-20 -24 -19 -20 2 -23 5 -15 20 12 22 21 24 13 3 -4 -8 -1 -15 5 -15 6 0 11 9
11 20 0 14 7 20 21 20 11 0 17 -5 14 -10z m133 -65 c2 -53 -1 -75 -13 -90 -16
-20 -16 -20 -6 2 16 31 13 103 -4 136 -13 26 -13 28 3 25 14 -3 18 -16 20 -73z
m-683 59 c-46 -7 -125 -8 -125 -1 0 4 33 6 73 6 39 -1 63 -3 52 -5z m398 -34
c-9 -22 -18 -38 -20 -36 -7 6 20 76 28 76 4 0 0 -18 -8 -40z m185 9 c-3 -8 -7
-3 -11 10 -4 17 -3 21 5 13 5 -5 8 -16 6 -23z m600 24 c-15 -2 -42 -2 -60 0
-18 2 -6 4 27 4 33 0 48 -2 33 -4z m-1751 -9 c-3 -3 -12 -4 -19 -1 -8 3 -5 6
6 6 11 1 17 -2 13 -5z m1127 -12 c3 -5 -1 -9 -9 -9 -8 0 -15 4 -15 9 0 4 4 8
9 8 6 0 12 -4 15 -8z m-529 -31 c-6 -5 -47 -11 -92 -13 -45 -2 -79 0 -75 4 4
4 43 9 87 11 44 1 82 4 85 5 2 1 0 -2 -5 -7z m422 -43 c-2 -13 -4 -5 -4 17 -1
22 1 32 4 23 2 -10 2 -28 0 -40z m169 12 c2 -16 0 -30 -5 -30 -5 0 -9 16 -9
36 0 42 9 38 14 -6z m189 -13 c20 -35 23 -46 11 -41 -9 3 -16 14 -16 24 0 42
-19 27 -23 -17 -3 -39 -4 -35 -5 21 -1 38 0 67 2 65 1 -2 15 -25 31 -52z
m-314 10 c-10 -9 -11 -8 -5 6 3 10 9 15 12 12 3 -3 0 -11 -7 -18z m723 -19
c-4 -13 -7 -25 -7 -28 1 -3 -21 -6 -48 -7 -27 -1 -47 2 -44 7 2 4 -8 10 -23
13 -31 6 -43 0 -23 -12 8 -5 9 -11 3 -15 -9 -6 -22 14 -22 35 0 5 36 9 80 9
68 0 80 3 80 17 0 9 3 14 6 10 3 -3 2 -16 -2 -29z m-2307 -45 c-2 -16 -4 -5
-4 22 0 28 2 40 4 28 2 -13 2 -35 0 -50z m940 5 c-2 -13 -4 -3 -4 22 0 25 2
35 4 23 2 -13 2 -33 0 -45z m-960 46 c-3 -3 -12 -4 -19 -1 -8 3 -5 6 6 6 11 1
17 -2 13 -5z m1325 -51 c-5 -76 -10 -83 -11 -15 0 34 2 62 7 62 4 0 6 -21 4
-47z m-1725 -30 c-2 -16 -4 -5 -4 22 0 28 2 40 4 28 2 -13 2 -35 0 -50z m2869
38 c5 -5 27 -11 49 -14 l40 -4 -43 -1 c-27 -1 -49 4 -58 13 -9 8 -12 15 -7 15
5 0 13 -4 19 -9z m-849 -33 c-3 -7 -5 -2 -5 12 0 14 2 19 5 13 2 -7 2 -19 0
-25z m53 6 c0 -8 -5 -12 -10 -9 -6 4 -8 11 -5 16 9 14 15 11 15 -7z m617 9
c-20 -2 -52 -2 -70 0 -17 2 0 4 38 4 39 0 53 -2 32 -4z m-2520 -40 c-3 -10 -5
-4 -5 12 0 17 2 24 5 18 2 -7 2 -21 0 -30z m2864 19 c-13 -2 -27 0 -32 5 -6 6
3 7 23 4 28 -4 29 -6 9 -9z m-1051 -39 c0 -8 -38 17 -51 33 -9 11 -2 9 19 -6
17 -13 32 -25 32 -27z m860 17 c0 -11 -2 -20 -4 -20 -2 0 -6 9 -9 20 -3 11 -1
20 4 20 5 0 9 -9 9 -20z m301 2 c-18 -2 -37 0 -42 5 -5 5 11 6 34 3 41 -4 41
-5 8 -8z m-1026 -12 c-3 -5 -12 -10 -18 -10 -7 0 -6 4 3 10 19 12 23 12 15 0z
m-1852 -352 c8 -5 7 -8 -5 -8 -17 0 -18 14 -16 178 l2 177 3 -170 c3 -120 7
-171 16 -177z m1155 335 c-10 -2 -26 -2 -35 0 -10 3 -2 5 17 5 19 0 27 -2 18
-5z m270 0 c-10 -2 -26 -2 -35 0 -10 3 -2 5 17 5 19 0 27 -2 18 -5z m565 0
c-7 -2 -19 -2 -25 0 -7 3 -2 5 12 5 14 0 19 -2 13 -5z m185 0 c-10 -2 -26 -2
-35 0 -10 3 -2 5 17 5 19 0 27 -2 18 -5z m-1633 -13 c-3 -5 3 -10 15 -10 12 0
18 4 15 10 -3 6 1 7 9 4 9 -3 16 -10 16 -16 0 -5 17 -8 38 -6 36 3 37 2 37
-32 0 -31 -3 -35 -25 -35 -20 0 -26 6 -28 28 -2 15 -8 27 -14 27 -5 0 -7 -7
-4 -16 3 -8 2 -12 -3 -9 -6 3 -14 -3 -20 -12 -6 -10 -11 -13 -11 -8 0 6 -4 3
-10 -5 -5 -8 -11 -12 -13 -10 -9 11 -14 100 -5 100 5 0 6 -4 3 -10z m2355 -16
c0 -8 -5 -12 -10 -9 -6 4 -8 11 -5 16 9 14 15 11 15 -7z m-2490 -34 c0 -29 -4
-40 -15 -40 -11 0 -15 11 -15 40 0 29 4 40 15 40 11 0 15 -11 15 -40z m59 23
c10 -17 10 -17 11 0 0 9 7 17 15 17 11 0 15 -11 15 -39 0 -38 -1 -39 -35 -38
-34 1 -35 2 -35 39 0 40 12 49 29 21z m297 -13 c-3 -18 -2 -29 3 -25 5 3 13 0
17 -6 4 -8 3 -9 -4 -5 -7 4 -12 2 -12 -3 0 -19 -30 -12 -31 7 -1 16 -2 16 -6
0 -8 -33 -23 -18 -23 22 0 38 1 40 31 40 30 0 31 -2 25 -30z m91 15 c8 -9 18
-13 21 -10 4 3 0 10 -8 15 -12 7 -9 10 12 10 20 0 28 -7 37 -31 15 -42 14 -52
-3 -46 -8 3 -27 2 -43 -3 -15 -4 -23 -9 -16 -9 7 -1 10 -7 7 -15 -9 -23 -54
26 -54 59 0 23 -3 25 -14 16 -12 -10 -13 -8 -9 8 6 25 47 28 70 6z m151 -4 c3
-10 0 -12 -12 -8 -11 5 -16 1 -16 -13 0 -13 5 -18 15 -14 8 4 15 1 15 -4 0
-14 -8 -18 -45 -25 -16 -4 -25 -4 -18 -1 7 3 9 12 6 20 -3 8 -2 26 1 40 5 19
12 24 28 22 12 -2 24 -9 26 -17z m52 -21 c0 -22 -4 -40 -10 -40 -5 0 -10 18
-10 40 0 22 5 40 10 40 6 0 10 -18 10 -40z m85 0 c0 -31 -3 -35 -25 -35 -19 0
-26 6 -28 23 -5 36 5 54 30 50 19 -2 23 -9 23 -38z m64 23 c10 -17 10 -17 11
0 0 9 5 17 10 17 6 0 10 -18 10 -40 0 -29 -4 -40 -15 -40 -8 0 -15 6 -16 13 0
10 -2 10 -6 0 -10 -27 -23 -11 -23 27 0 42 12 52 29 23z m129 -8 c7 -15 8 -25
2 -25 -6 0 -10 7 -10 15 0 9 -9 15 -22 14 -17 -1 -19 -2 -5 -6 9 -2 17 -8 17
-13 0 -5 -8 -11 -17 -13 -14 -4 -12 -5 5 -6 33 -2 27 -21 -8 -21 -28 0 -30 2
-30 40 0 37 2 40 28 40 21 0 32 -7 40 -25z m70 -21 c2 -40 2 -41 -28 -36 -16
2 -30 10 -30 17 0 8 9 11 23 9 21 -4 21 -4 1 5 -43 19 -36 52 11 48 16 -2 20
-10 23 -43z m105 27 c-2 -6 2 -11 7 -11 6 0 10 7 10 15 0 8 5 15 10 15 6 0 10
-18 10 -40 0 -22 -4 -40 -10 -40 -5 0 -10 7 -10 15 0 8 -4 15 -10 15 -5 0 -10
-7 -10 -15 0 -8 -4 -15 -10 -15 -5 0 -10 18 -10 41 0 28 4 39 13 36 6 -2 11
-10 10 -16z m117 5 c0 -8 -3 -16 -7 -19 -5 -2 -3 -3 3 -1 7 1 14 -8 17 -22 4
-21 0 -24 -24 -24 -34 0 -41 9 -33 49 5 21 12 31 25 31 11 0 19 -6 19 -14z
m126 -28 c1 -26 -3 -38 -12 -38 -8 0 -14 6 -15 13 0 10 -2 10 -6 0 -10 -27
-23 -11 -23 28 0 38 1 40 28 37 24 -3 27 -7 28 -40z m134 27 c0 -9 -6 -12 -17
-8 -12 4 -10 -1 6 -14 28 -23 21 -43 -15 -43 -27 0 -34 19 -6 21 16 1 16 2 0
6 -18 4 -24 33 -11 46 12 13 43 7 43 -8z m124 -9 c3 -13 8 -30 11 -38 4 -10
-4 -14 -30 -14 -19 0 -35 1 -35 2 0 1 7 18 15 38 18 42 30 46 39 12z m144 1
c3 -15 0 -18 -17 -12 -15 5 -21 2 -21 -10 0 -12 6 -15 21 -10 16 5 20 3 17 -6
-3 -8 -16 -14 -29 -14 -25 0 -37 30 -25 61 8 21 50 13 54 -9z m-2431 -54 c-2
-16 -4 -5 -4 22 0 28 2 40 4 28 2 -13 2 -35 0 -50z m800 20 c-3 -10 -5 -2 -5
17 0 19 2 27 5 18 2 -10 2 -26 0 -35z m950 -5 c-2 -13 -4 -5 -4 17 -1 22 1 32
4 23 2 -10 2 -28 0 -40z m1368 43 c3 -5 1 -12 -5 -16 -5 -3 -10 1 -10 9 0 18
6 21 15 7z m-905 -51 c0 -5 -4 -10 -10 -10 -5 0 -10 5 -10 10 0 6 5 10 10 10
6 0 10 -4 10 -10z m135 0 c3 -5 -1 -10 -10 -10 -9 0 -13 5 -10 10 3 6 8 10 10
10 2 0 7 -4 10 -10z m125 0 c0 -5 -4 -10 -10 -10 -5 0 -10 5 -10 10 0 6 5 10
10 10 6 0 10 -4 10 -10z m-1600 -49 c0 -12 101 -84 117 -84 7 0 10 -4 7 -9 -3
-4 2 -11 10 -14 25 -10 19 -29 -10 -30 -37 -3 -38 -8 -10 -52 18 -29 22 -42
13 -51 -19 -19 -33 -13 -58 24 -13 19 -27 35 -30 35 -3 0 -12 -11 -19 -25 -18
-34 -28 -31 -34 8 -3 17 -10 59 -16 91 -16 92 -14 116 10 116 11 0 20 -4 20
-9z m-71 -49 c-4 -2 1 -17 11 -34 18 -30 18 -32 2 -44 -9 -7 -13 -16 -9 -20 4
-5 12 -2 17 6 5 8 12 11 16 8 3 -4 -1 -15 -11 -24 -14 -15 -18 -15 -26 -3 -8
12 -10 12 -19 -1 -6 -10 -10 -11 -10 -2 0 6 -8 12 -17 13 -10 1 -3 6 15 11 20
7 32 17 32 29 0 29 -11 49 -29 49 -14 1 -14 2 2 11 9 5 17 20 18 32 1 20 2 20
8 -3 4 -14 4 -26 0 -28z m-812 1 c-3 -10 -5 -4 -5 12 0 17 2 24 5 18 2 -7 2
-21 0 -30z m730 -29 c-3 -3 -12 -4 -19 -1 -8 3 -5 6 6 6 11 1 17 -2 13 -5z
m1263 -4 c0 -5 -4 -10 -9 -10 -6 0 -13 5 -16 10 -3 6 1 10 9 10 9 0 16 -4 16
-10z m-1315 -10 c-11 -5 -27 -9 -35 -9 -9 0 -8 4 5 9 11 5 27 9 35 9 9 0 8 -4
-5 -9z m-238 -66 c-3 -3 -12 -4 -19 -1 -8 3 -5 6 6 6 11 1 17 -2 13 -5z m-40
-10 c-3 -3 -12 -4 -19 -1 -8 3 -5 6 6 6 11 1 17 -2 13 -5z m310 0 c-3 -3 -12
-4 -19 -1 -8 3 -5 6 6 6 11 1 17 -2 13 -5z m-362 -14 c-11 -5 -27 -9 -35 -9
-9 0 -8 4 5 9 11 5 27 9 35 9 9 0 8 -4 -5 -9z m310 0 c-11 -5 -27 -9 -35 -9
-9 0 -8 4 5 9 11 5 27 9 35 9 9 0 8 -4 -5 -9z m1573 -23 c5 -24 -15 -21 -21 4
-3 13 -1 19 6 16 7 -2 13 -11 15 -20z m-1631 7 c-3 -3 -12 -4 -19 -1 -8 3 -5
6 6 6 11 1 17 -2 13 -5z m-100 -30 c-3 -3 -12 -4 -19 -1 -8 3 -5 6 6 6 11 1
17 -2 13 -5z m-52 -14 c-11 -5 -27 -9 -35 -9 -9 0 -8 4 5 9 11 5 27 9 35 9 9
0 8 -4 -5 -9z m1885 -6 c0 -2 -11 -4 -25 -4 -14 0 -25 4 -25 9 0 4 11 6 25 3
14 -2 25 -6 25 -8z m-1960 -14 c-8 -5 -22 -9 -30 -9 -10 0 -8 3 5 9 27 12 43
12 25 0z m2016 -15 c17 -13 17 -14 2 -15 -9 0 -20 5 -23 10 -4 6 -10 8 -15 5
-5 -3 -11 -1 -15 5 -9 15 29 12 51 -5z m114 -39 c0 -2 -8 -10 -17 -17 -16 -13
-17 -12 -4 4 13 16 21 21 21 13z m7 -41 c-15 -16 -19 -13 -11 9 3 9 10 13 15
10 5 -3 3 -11 -4 -19z m-1600 -1 c-3 -3 -12 -4 -19 -1 -8 3 -5 6 6 6 11 1 17
-2 13 -5z m803 -35 c0 -5 -7 -9 -15 -9 -15 0 -20 12 -9 23 8 8 24 -1 24 -14z
m980 -29 c0 -13 -50 -13 -70 0 -11 7 -4 10 28 10 23 0 42 -4 42 -10z m-1520
-61 c0 -5 -7 -9 -15 -9 -15 0 -20 12 -9 23 8 8 24 -1 24 -14z m1637 3 c17 -11
-1 -36 -21 -29 -9 4 -13 13 -10 22 7 17 13 18 31 7z m200 -108 c-3 -3 -12 -4
-19 -1 -8 3 -5 6 6 6 11 1 17 -2 13 -5z"/>
<path d="M914 1588 l-19 -23 23 19 c21 18 27 26 19 26 -2 0 -12 -10 -23 -22z"/>
<path d="M883 1325 c0 -22 2 -30 4 -17 2 12 2 30 0 40 -3 9 -5 -1 -4 -23z"/>
<path d="M1516 971 c-3 -4 5 -6 17 -4 14 3 26 -3 35 -16 7 -12 8 -21 3 -21 -5
0 -11 -6 -14 -12 -2 -7 -3 -4 -1 8 4 25 -3 34 -21 27 -8 -2 -11 -11 -8 -19 3
-8 0 -14 -6 -14 -6 0 -11 -8 -12 -17 0 -16 -2 -15 -10 2 -7 15 -8 9 -5 -24 6
-60 23 -75 75 -66 23 4 39 11 35 16 -3 5 0 9 5 9 6 0 11 7 11 15 0 8 -4 15 -8
15 -5 0 -6 15 -3 33 l5 32 8 -30 c6 -26 7 -25 3 8 -2 22 -9 45 -16 53 -12 15
-84 19 -93 5z"/>
<path d="M1272 680 c0 -14 2 -19 5 -12 2 6 2 18 0 25 -3 6 -5 1 -5 -13z"/>
<path d="M1452 670 c0 -19 2 -27 5 -17 2 9 2 25 0 35 -3 9 -5 1 -5 -18z"/>
<path d="M1731 674 c0 -11 3 -14 6 -6 3 7 2 16 -1 19 -3 4 -6 -2 -5 -13z"/>
</g>
</svg>
